<svg width="256" height="142" viewBox="0 0 256 142" fill="none" xmlns="http://www.w3.org/2000/svg">
    <defs>
        <filter id="filter0_f_2381_3565" x="-16" y="0" width="272" height="142"
            filterUnits="userSpaceOnUse" color-interpolation-filters="sRGB">
            <feFlood flood-opacity="0" result="BackgroundImageFix" />
            <feBlend mode="normal" in="SourceGraphic" in2="BackgroundImageFix" result="shape" />
            <feGaussianBlur stdDeviation="25" result="effect1_foregroundBlur_2381_3565" />
        </filter>
        <linearGradient id="paint0_linear_2381_3565" x1="87.4105" y1="32.4125" x2="129.979"
            y2="118.323" gradientUnits="userSpaceOnUse">
            <stop stop-color="#FF6B00" />
            <stop offset="0.541649" stop-color="#FF38AB" />
            <stop offset="1" stop-color="#FE0000" />
        </linearGradient>
    </defs>
    <g filter="url(#filter0_f_2381_3565)">
        <path
            d="M74.4373 50C76.1187 50 76.9595 50 77.7824 50.1145C78.5783 50.2253 79.361 50.4157 80.1188 50.6828C80.9024 50.9591 81.6492 51.3453 83.1429 52.1176C84.6365 52.89 85.3833 53.2762 86.1669 53.5525C86.9247 53.8196 87.7074 54.01 88.5033 54.1208C89.3262 54.2353 90.167 54.2353 91.8485 54.2353H149.33C150.371 54.2353 150.892 54.2353 151.403 54.1915C152.804 54.0716 154.173 53.7062 155.448 53.1122C155.913 52.8956 156.364 52.6363 157.267 52.1176C158.169 51.599 158.621 51.3397 159.086 51.1231C160.36 50.529 161.729 50.1637 163.131 50.0437C163.641 50 164.162 50 165.203 50H185C193.427 50 197.64 50 200.667 52.0224C201.977 52.8979 203.102 54.0229 203.978 55.3332C206 58.3598 206 62.5732 206 71C206 79.4268 206 83.6402 203.978 86.6668C203.102 87.9771 201.977 89.1021 200.667 89.9776C197.64 92 193.427 92 185 92H55C46.5732 92 42.3598 92 39.3332 89.9776C38.0229 89.1021 36.8979 87.9771 36.0224 86.6668C34 83.6402 34 79.4268 34 71C34 62.5732 34 58.3598 36.0224 55.3332C36.8979 54.0229 38.0229 52.8979 39.3332 52.0224C42.3598 50 46.5732 50 55 50H74.4373Z"
            fill="url(#paint0_linear_2381_3565)" />
    </g>
</svg>
