<svg width="210" height="119" viewBox="0 0 210 119" fill="none" xmlns="http://www.w3.org/2000/svg">
    <defs>
        <linearGradient id="paint0_linear_2381_3579" x1="65.2105" y1="-49.8313" x2="215.332"
            y2="80.7226" gradientUnits="userSpaceOnUse">
            <stop stop-color="#FFB300" />
            <stop offset="0.0001" stop-color="#FEB101" />
            <stop offset="0.515625" stop-color="#FF38AB" />
            <stop offset="1" stop-color="#FE0000" />
        </linearGradient>
    </defs>
    <path
        d="M47.1897 0C49.3339 0 50.4059 0 51.4175 0.174319C53.538 0.53976 55.5213 1.46868 57.1596 2.86378C57.941 3.52926 58.6274 4.35284 60 6V6C61.3726 7.64716 62.059 8.47074 62.8404 9.13622C64.4787 10.5313 66.462 11.4602 68.5825 11.8257C69.5941 12 70.6661 12 72.8103 12H138.5C139.964 12 140.696 12 141.388 11.9195C144.179 11.5945 146.768 10.3001 148.703 8.26195C149.182 7.757 149.621 7.17133 150.5 6V6C151.379 4.82867 151.818 4.243 152.297 3.73805C154.232 1.69994 156.821 0.405537 159.612 0.0805232C160.304 0 161.036 0 162.5 0H186C197.314 0 202.971 0 206.485 3.51472C210 7.02944 210 12.6863 210 24V95C210 106.314 210 111.971 206.485 115.485C202.971 119 197.314 119 186 119H24C12.6863 119 7.02944 119 3.51472 115.485C0 111.971 0 106.314 0 95V24C0 12.6863 0 7.02944 3.51472 3.51472C7.02944 0 12.6863 0 24 0H47.1897Z"
        fill="url(#paint0_linear_2381_3579)" />
</svg>
