<svg width="40" height="40" viewBox="0 0 40 40" fill="none" xmlns="http://www.w3.org/2000/svg">
    <circle opacity="0.1" cx="20" cy="20" r="20" fill="#52A0F5" />
    <path
        d="M20 24.1666C23.0517 24.1666 25.7208 25.4791 27.1725 27.4375L25.6375 28.1633C24.4558 26.7633 22.3725 25.8333 20 25.8333C17.6275 25.8333 15.5442 26.7633 14.3625 28.1633L12.8283 27.4366C14.28 25.4783 16.9483 24.1666 20 24.1666ZM20 11.6666C21.1051 11.6666 22.1649 12.1056 22.9463 12.887C23.7277 13.6684 24.1667 14.7282 24.1667 15.8333V18.3333C24.1667 19.4384 23.7277 20.4982 22.9463 21.2796C22.1649 22.061 21.1051 22.5 20 22.5C18.8949 22.5 17.8351 22.061 17.0537 21.2796C16.2723 20.4982 15.8333 19.4384 15.8333 18.3333V15.8333C15.8333 14.7282 16.2723 13.6684 17.0537 12.887C17.8351 12.1056 18.8949 11.6666 20 11.6666Z"
        fill="#52A0F5" />
</svg>
