<svg width="26" height="26" viewBox="0 0 26 26" fill="none" xmlns="http://www.w3.org/2000/svg">
    <path
        d="M13 25.5C6.09623 25.5 0.499977 19.9037 0.499977 13C0.499977 6.09625 6.09623 0.5 13 0.5C19.9037 0.5 25.5 6.09625 25.5 13C25.5 19.9037 19.9037 25.5 13 25.5ZM8.62498 15.5V18H11.75V20.5H14.25V18H15.5C16.3288 18 17.1236 17.6708 17.7097 17.0847C18.2957 16.4987 18.625 15.7038 18.625 14.875C18.625 14.0462 18.2957 13.2513 17.7097 12.6653C17.1236 12.0792 16.3288 11.75 15.5 11.75H10.5C10.3342 11.75 10.1752 11.6842 10.058 11.5669C9.94083 11.4497 9.87498 11.2908 9.87498 11.125C9.87498 10.9592 9.94083 10.8003 10.058 10.6831C10.1752 10.5658 10.3342 10.5 10.5 10.5H17.375V8H14.25V5.5H11.75V8H10.5C9.67118 8 8.87632 8.32924 8.29027 8.91529C7.70422 9.50134 7.37498 10.2962 7.37498 11.125C7.37498 11.9538 7.70422 12.7487 8.29027 13.3347C8.87632 13.9208 9.67118 14.25 10.5 14.25H15.5C15.6657 14.25 15.8247 14.3158 15.9419 14.4331C16.0591 14.5503 16.125 14.7092 16.125 14.875C16.125 15.0408 16.0591 15.1997 15.9419 15.3169C15.8247 15.4342 15.6657 15.5 15.5 15.5H8.62498Z"
        fill="white" />
</svg>
