<svg width="16" height="15" viewBox="0 0 16 15" fill="none" xmlns="http://www.w3.org/2000/svg">
    <path
        d="M8.00012 0.333252L10.8174 4.45525L15.6088 5.86125L12.5588 9.81458L12.7021 14.8053L8.00012 13.1266L3.29812 14.8053L3.44145 9.81458L0.391449 5.86125L5.18278 4.45525L8.00012 0.333252ZM6.66678 7.99992H5.33345C5.33344 8.69562 5.60531 9.36378 6.09105 9.86184C6.57679 10.3599 7.23794 10.6484 7.93343 10.6658C8.62891 10.6832 9.30366 10.4281 9.8137 9.95496C10.3237 9.48182 10.6287 8.82808 10.6634 8.13325L10.6668 7.99992H9.33345C9.335 8.34591 9.20199 8.67895 8.96253 8.92869C8.72307 9.17842 8.39591 9.3253 8.05016 9.33828C7.70441 9.35126 7.36715 9.22933 7.10964 8.99826C6.85212 8.76718 6.69452 8.44505 6.67012 8.09992L6.66678 7.99992Z"
        fill="#FFC12D" />
</svg>
