<svg width="40" height="40" viewBox="0 0 40 40" fill="none" xmlns="http://www.w3.org/2000/svg">
    <circle opacity="0.1" cx="20" cy="20" r="20" fill="#C26BF9" />
    <path
        d="M26.6667 28.3333H13.3333C13.1123 28.3333 12.9004 28.2455 12.7441 28.0892C12.5878 27.9329 12.5 27.721 12.5 27.5V12.5C12.5 12.2789 12.5878 12.067 12.7441 11.9107C12.9004 11.7544 13.1123 11.6666 13.3333 11.6666H26.6667C26.8877 11.6666 27.0996 11.7544 27.2559 11.9107C27.4122 12.067 27.5 12.2789 27.5 12.5V27.5C27.5 27.721 27.4122 27.9329 27.2559 28.0892C27.0996 28.2455 26.8877 28.3333 26.6667 28.3333ZM16.6667 15.8333V17.5H23.3333V15.8333H16.6667ZM16.6667 19.1666V20.8333H23.3333V19.1666H16.6667ZM16.6667 22.5V24.1666H23.3333V22.5H16.6667Z"
        fill="#C26BF9" />
</svg>
