<svg width="40" height="40" viewBox="0 0 40 40" fill="none" xmlns="http://www.w3.org/2000/svg">
    <circle opacity="0.1" cx="20" cy="20" r="20" fill="#F26110" />
    <path
        d="M12.5 18.3333H27.5V26.67C27.5 27.1283 27.1292 27.5 26.6725 27.5H13.3275C13.2186 27.4999 13.1109 27.4783 13.0104 27.4365C12.9099 27.3948 12.8186 27.3336 12.7417 27.2565C12.6649 27.1794 12.604 27.0879 12.5625 26.9873C12.521 26.8867 12.4998 26.7788 12.5 26.67V18.3333ZM17.5 20V21.6667H22.5V20H17.5ZM11.6667 13.3333C11.6667 12.8733 12.0458 12.5 12.4933 12.5H27.5067C27.9633 12.5 28.3333 12.87 28.3333 13.3333V16.6667H11.6667V13.3333Z"
        fill="#F26110" />
</svg>
